<svg xmlns="http://www.w3.org/2000/svg" width="805" height="600"><rect width="805" height="600" x="0" y="0" fill="#FFFFFF" id="backgorund"/><g id="viz"><clipPath id="serieClipPath"><rect x="-50" y="-10" width="805" height="600"/></clipPath><g transform="translate(0,0)"><g transform="translate(50,10)" clip-path="url(#serieClipPath)"><g id="axis"><g transform="translate(0,237.49999999999997)" fill="none" font-size="10" font-family="sans-serif" text-anchor="middle"><path class="domain" stroke="currentColor" d="M0,6V0H740V6"/><g class="tick" opacity="1" transform="translate(0,0)"><line stroke="currentColor" y2="6"/><text fill="currentColor" y="9" dy="0.71em">2,004</text></g><g class="tick" opacity="1" transform="translate(92.5,0)"><line stroke="currentColor" y2="6"/><text fill="currentColor" y="9" dy="0.71em">2,006</text></g><g class="tick" opacity="1" transform="translate(185,0)"><line stroke="currentColor" y2="6"/><text fill="currentColor" y="9" dy="0.71em">2,008</text></g><g class="tick" opacity="1" transform="translate(277.5,0)"><line stroke="currentColor" y2="6"/><text fill="currentColor" y="9" dy="0.71em">2,010</text></g><g class="tick" opacity="1" transform="translate(370,0)"><line stroke="currentColor" y2="6"/><text fill="currentColor" y="9" dy="0.71em">2,012</text></g><g class="tick" opacity="1" transform="translate(462.5,0)"><line stroke="currentColor" y2="6"/><text fill="currentColor" y="9" dy="0.71em">2,014</text></g><g class="tick" opacity="1" transform="translate(555,0)"><line stroke="currentColor" y2="6"/><text fill="currentColor" y="9" dy="0.71em">2,016</text></g><g class="tick" opacity="1" transform="translate(647.5,0)"><line stroke="currentColor" y2="6"/><text fill="currentColor" y="9" dy="0.71em">2,018</text></g><g class="tick" opacity="1" transform="translate(740,0)"><line stroke="currentColor" y2="6"/><text fill="currentColor" y="9" dy="0.71em">2,020</text></g><text x="740" dy="-5" text-anchor="end" style="font-family: Arial, sans-serif; font-size: 12px; fill: rgb(123, 123, 123); font-weight: bold;">Year</text></g><g transform="translate(0,0)" fill="none" font-size="10" font-family="sans-serif" text-anchor="end"><path class="domain" stroke="currentColor" d="M0,570V0"/><g class="tick" opacity="1" transform="translate(0,570)"><line stroke="currentColor" x2="-6"/><text fill="currentColor" x="-9" dy="0.32em">−70</text></g><g class="tick" opacity="1" transform="translate(0,522.5)"><line stroke="currentColor" x2="-6"/><text fill="currentColor" x="-9" dy="0.32em">−60</text></g><g class="tick" opacity="1" transform="translate(0,475)"><line stroke="currentColor" x2="-6"/><text fill="currentColor" x="-9" dy="0.32em">−50</text></g><g class="tick" opacity="1" transform="translate(0,427.5)"><line stroke="currentColor" x2="-6"/><text fill="currentColor" x="-9" dy="0.32em">−40</text></g><g class="tick" opacity="1" transform="translate(0,380.00000000000006)"><line stroke="currentColor" x2="-6"/><text fill="currentColor" x="-9" dy="0.32em">−30</text></g><g class="tick" opacity="1" transform="translate(0,332.49999999999994)"><line stroke="currentColor" x2="-6"/><text fill="currentColor" x="-9" dy="0.32em">−20</text></g><g class="tick" opacity="1" transform="translate(0,285)"><line stroke="currentColor" x2="-6"/><text fill="currentColor" x="-9" dy="0.32em">−10</text></g><g class="tick" opacity="1" transform="translate(0,237.49999999999997)"><line stroke="currentColor" x2="-6"/><text fill="currentColor" x="-9" dy="0.32em">0</text></g><g class="tick" opacity="1" transform="translate(0,190.00000000000003)"><line stroke="currentColor" x2="-6"/><text fill="currentColor" x="-9" dy="0.32em">10</text></g><g class="tick" opacity="1" transform="translate(0,142.5)"><line stroke="currentColor" x2="-6"/><text fill="currentColor" x="-9" dy="0.32em">20</text></g><g class="tick" opacity="1" transform="translate(0,94.99999999999999)"><line stroke="currentColor" x2="-6"/><text fill="currentColor" x="-9" dy="0.32em">30</text></g><g class="tick" opacity="1" transform="translate(0,47.50000000000002)"><line stroke="currentColor" x2="-6"/><text fill="currentColor" x="-9" dy="0.32em">40</text></g><g class="tick" opacity="1" transform="translate(0,0)"><line stroke="currentColor" x2="-6"/><text fill="currentColor" x="-9" dy="0.32em">50</text></g><text x="4" text-anchor="start" dominant-baseline="hanging" style="font-family: Arial, sans-serif; font-size: 12px; fill: rgb(123, 123, 123); font-weight: bold;">Generosity</text></g></g><g id="viz"><g><path d="M46.25,217.74C69.375,217.74,69.375,204.67749999999998,92.5,204.67749999999998C115.625,204.67749999999998,115.625,150.47999999999993,138.75,150.47999999999993C161.875,150.47999999999993,161.875,32.1575,185,32.1575C208.125,32.1575,208.125,215.31750000000002,231.25,215.31750000000002C254.375,215.31750000000002,254.375,239.8275,277.5,239.8275C300.625,239.8275,300.625,377.0075,323.75,377.0075C346.875,377.0075,346.875,250.37250000000003,370,250.37250000000003C393.125,250.37250000000003,393.125,195.22500000000002,416.25,195.22500000000002C439.375,195.22500000000002,439.375,18.810000000000016,462.5,18.810000000000016C485.625,18.810000000000016,485.625,48.212500000000006,508.75,48.212500000000006C531.875,48.212500000000006,531.875,235.125,555,235.125C578.125,235.125,578.125,318.3925,601.25,318.3925C624.375,318.3925,624.375,530.9075,647.5,530.9075C670.625,530.9075,670.625,457.33000000000004,693.75,457.33000000000004C716.875,457.33000000000004,716.875,345.7999999999999,740,345.7999999999999" stroke="#1f77b4" fill="none"/><text font-family="sans-serif" font-size="10" class="labels" x="462.5" y="18.810000000000016" dx="0" dy="-4" text-anchor="middle"/></g></g></g><text y="4" x="4" style="font-family: Arial, sans-serif; font-size: 12px; fill: black; font-weight: bold; dominant-baseline: hanging;"/></g><g id="grid"><rect x="0" y="0" width="805" height="600" fill="none" stroke="#ccc"/></g></g></svg>