<svg xmlns="http://www.w3.org/2000/svg" width="1500" height="1000"><rect width="1500" height="1000" x="0" y="0" fill="#FFFFFF" id="backgorund"/><g id="viz"><clipPath id="serieClipPath"><rect x="-50" y="-25" width="750" height="500"/></clipPath><g id="Mogilev" transform="translate(0,0)"><g transform="translate(50,25)" clip-path="url(#serieClipPath)"><g id="axis"><g transform="translate(0,455)" fill="none" font-size="10" font-family="sans-serif" text-anchor="middle"><path class="domain" stroke="currentColor" d="M0,6V0H681V6"/><g class="tick" opacity="1" transform="translate(0,0)"><line stroke="currentColor" y2="6"/><text fill="currentColor" y="9" dy="0.71em">1985</text></g><g class="tick" opacity="1" transform="translate(57.83835616438356,0)"><line stroke="currentColor" y2="6"/><text fill="currentColor" y="9" dy="0.71em">February</text></g><g class="tick" opacity="1" transform="translate(110.07945205479452,0)"><line stroke="currentColor" y2="6"/><text fill="currentColor" y="9" dy="0.71em">March</text></g><g class="tick" opacity="1" transform="translate(167.91780821917808,0)"><line stroke="currentColor" y2="6"/><text fill="currentColor" y="9" dy="0.71em">April</text></g><g class="tick" opacity="1" transform="translate(223.8126712328767,0)"><line stroke="currentColor" y2="6"/><text fill="currentColor" y="9" dy="0.71em">May</text></g><g class="tick" opacity="1" transform="translate(281.6510273972603,0)"><line stroke="currentColor" y2="6"/><text fill="currentColor" y="9" dy="0.71em">June</text></g><g class="tick" opacity="1" transform="translate(337.6236301369863,0)"><line stroke="currentColor" y2="6"/><text fill="currentColor" y="9" dy="0.71em">July</text></g><g class="tick" opacity="1" transform="translate(395.4619863013699,0)"><line stroke="currentColor" y2="6"/><text fill="currentColor" y="9" dy="0.71em">August</text></g><g class="tick" opacity="1" transform="translate(453.30034246575343,0)"><line stroke="currentColor" y2="6"/><text fill="currentColor" y="9" dy="0.71em">September</text></g><g class="tick" opacity="1" transform="translate(509.27294520547946,0)"><line stroke="currentColor" y2="6"/><text fill="currentColor" y="9" dy="0.71em">October</text></g><g class="tick" opacity="1" transform="translate(567.1890410958904,0)"><line stroke="currentColor" y2="6"/><text fill="currentColor" y="9" dy="0.71em">November</text></g><g class="tick" opacity="1" transform="translate(623.1616438356165,0)"><line stroke="currentColor" y2="6"/><text fill="currentColor" y="9" dy="0.71em">December</text></g><g class="tick" opacity="1" transform="translate(681,0)"><line stroke="currentColor" y2="6"/><text fill="currentColor" y="9" dy="0.71em">1986</text></g><text x="681" dy="-5" text-anchor="end" style="font-family: Arial, sans-serif; font-size: 12px; fill: rgb(123, 123, 123); font-weight: bold;">year</text></g><g transform="translate(0,0)" fill="none" font-size="10" font-family="sans-serif" text-anchor="end"><path class="domain" stroke="currentColor" d="M0,455V0"/><g class="tick" opacity="1" transform="translate(0,455)"><line stroke="currentColor" x2="-6"/><text fill="currentColor" x="-9" dy="0.32em">0</text></g><g class="tick" opacity="1" transform="translate(0,398.125)"><line stroke="currentColor" x2="-6"/><text fill="currentColor" x="-9" dy="0.32em">10</text></g><g class="tick" opacity="1" transform="translate(0,341.25)"><line stroke="currentColor" x2="-6"/><text fill="currentColor" x="-9" dy="0.32em">20</text></g><g class="tick" opacity="1" transform="translate(0,284.375)"><line stroke="currentColor" x2="-6"/><text fill="currentColor" x="-9" dy="0.32em">30</text></g><g class="tick" opacity="1" transform="translate(0,227.5)"><line stroke="currentColor" x2="-6"/><text fill="currentColor" x="-9" dy="0.32em">40</text></g><g class="tick" opacity="1" transform="translate(0,170.625)"><line stroke="currentColor" x2="-6"/><text fill="currentColor" x="-9" dy="0.32em">50</text></g><g class="tick" opacity="1" transform="translate(0,113.75)"><line stroke="currentColor" x2="-6"/><text fill="currentColor" x="-9" dy="0.32em">60</text></g><g class="tick" opacity="1" transform="translate(0,56.875)"><line stroke="currentColor" x2="-6"/><text fill="currentColor" x="-9" dy="0.32em">70</text></g><g class="tick" opacity="1" transform="translate(0,0)"><line stroke="currentColor" x2="-6"/><text fill="currentColor" x="-9" dy="0.32em">80</text></g><text x="4" text-anchor="start" dominant-baseline="hanging" style="font-family: Arial, sans-serif; font-size: 12px; fill: rgb(123, 123, 123); font-weight: bold;">cases</text></g></g><g id="viz"><g id="skin"><path d="M0,242.85625000000002C340.5,242.85625000000002,340.5,223.51874999999998,681,223.51874999999998" stroke="#8c564b" fill="none"/><text font-family="sans-serif" font-size="10" class="labels" x="681" y="223.51874999999998" dx="0" dy="-4" text-anchor="middle">skin</text></g><g id="thyroid"><path d="M0,444.7625C340.5,444.7625,340.5,428.8375,681,428.8375" stroke="#e377c2" fill="none"/><text font-family="sans-serif" font-size="10" class="labels" x="681" y="428.8375" dx="0" dy="-4" text-anchor="middle">thyroid</text></g><g id="lungs"><path d="M0,133.65624999999997C340.5,133.65624999999997,340.5,7.393750000000044,681,7.393750000000044" stroke="#2ca02c" fill="none"/><text font-family="sans-serif" font-size="10" class="labels" x="681" y="7.393750000000044" dx="0" dy="-4" text-anchor="middle">lungs</text></g><g id="pancreas"><path d="M0,389.59375C340.5,389.59375,340.5,385.04375,681,385.04375" stroke="#d62728" fill="none"/><text font-family="sans-serif" font-size="10" class="labels" x="681" y="385.04375" dx="0" dy="-4" text-anchor="middle">pancreas</text></g><g id="colon"><path d="M0,385.6125C340.5,385.6125,340.5,354.33125,681,354.33125" stroke="#1f77b4" fill="none"/><text font-family="sans-serif" font-size="10" class="labels" x="681" y="354.33125" dx="0" dy="-4" text-anchor="middle">colon</text></g><g id="rectum"><path d="M0,371.9625C340.5,371.9625,340.5,339.54375000000005,681,339.54375000000005" stroke="#9467bd" fill="none"/><text font-family="sans-serif" font-size="10" class="labels" x="681" y="339.54375000000005" dx="0" dy="-4" text-anchor="middle">rectum</text></g><g id="kidney"><path d="M0,426.5625C340.5,426.5625,340.5,398.69374999999997,681,398.69374999999997" stroke="#ff7f0e" fill="none"/><text font-family="sans-serif" font-size="10" class="labels" x="681" y="398.69374999999997" dx="0" dy="-4" text-anchor="middle">kidney</text></g></g></g><text y="4" x="4" style="font-family: Arial, sans-serif; font-size: 12px; fill: black; font-weight: bold; dominant-baseline: hanging;">Mogilev</text></g><g id="Belarus" transform="translate(750,0)"><g transform="translate(50,25)" clip-path="url(#serieClipPath)"><g id="axis"><g transform="translate(0,455)" fill="none" font-size="10" font-family="sans-serif" text-anchor="middle"><path class="domain" stroke="currentColor" d="M0,6V0H681V6"/><g class="tick" opacity="1" transform="translate(0,0)"><line stroke="currentColor" y2="6"/><text fill="currentColor" y="9" dy="0.71em">1985</text></g><g class="tick" opacity="1" transform="translate(57.83835616438356,0)"><line stroke="currentColor" y2="6"/><text fill="currentColor" y="9" dy="0.71em">February</text></g><g class="tick" opacity="1" transform="translate(110.07945205479452,0)"><line stroke="currentColor" y2="6"/><text fill="currentColor" y="9" dy="0.71em">March</text></g><g class="tick" opacity="1" transform="translate(167.91780821917808,0)"><line stroke="currentColor" y2="6"/><text fill="currentColor" y="9" dy="0.71em">April</text></g><g class="tick" opacity="1" transform="translate(223.8126712328767,0)"><line stroke="currentColor" y2="6"/><text fill="currentColor" y="9" dy="0.71em">May</text></g><g class="tick" opacity="1" transform="translate(281.6510273972603,0)"><line stroke="currentColor" y2="6"/><text fill="currentColor" y="9" dy="0.71em">June</text></g><g class="tick" opacity="1" transform="translate(337.6236301369863,0)"><line stroke="currentColor" y2="6"/><text fill="currentColor" y="9" dy="0.71em">July</text></g><g class="tick" opacity="1" transform="translate(395.4619863013699,0)"><line stroke="currentColor" y2="6"/><text fill="currentColor" y="9" dy="0.71em">August</text></g><g class="tick" opacity="1" transform="translate(453.30034246575343,0)"><line stroke="currentColor" y2="6"/><text fill="currentColor" y="9" dy="0.71em">September</text></g><g class="tick" opacity="1" transform="translate(509.27294520547946,0)"><line stroke="currentColor" y2="6"/><text fill="currentColor" y="9" dy="0.71em">October</text></g><g class="tick" opacity="1" transform="translate(567.1890410958904,0)"><line stroke="currentColor" y2="6"/><text fill="currentColor" y="9" dy="0.71em">November</text></g><g class="tick" opacity="1" transform="translate(623.1616438356165,0)"><line stroke="currentColor" y2="6"/><text fill="currentColor" y="9" dy="0.71em">December</text></g><g class="tick" opacity="1" transform="translate(681,0)"><line stroke="currentColor" y2="6"/><text fill="currentColor" y="9" dy="0.71em">1986</text></g><text x="681" dy="-5" text-anchor="end" display="none" style="font-family: Arial, sans-serif; font-size: 12px; fill: rgb(123, 123, 123); font-weight: bold;">year</text></g><g transform="translate(0,0)" fill="none" font-size="10" font-family="sans-serif" text-anchor="end"><path class="domain" stroke="currentColor" d="M0,455V0"/><g class="tick" opacity="1" transform="translate(0,455)"><line stroke="currentColor" x2="-6"/><text fill="currentColor" x="-9" dy="0.32em">0</text></g><g class="tick" opacity="1" transform="translate(0,398.125)"><line stroke="currentColor" x2="-6"/><text fill="currentColor" x="-9" dy="0.32em">10</text></g><g class="tick" opacity="1" transform="translate(0,341.25)"><line stroke="currentColor" x2="-6"/><text fill="currentColor" x="-9" dy="0.32em">20</text></g><g class="tick" opacity="1" transform="translate(0,284.375)"><line stroke="currentColor" x2="-6"/><text fill="currentColor" x="-9" dy="0.32em">30</text></g><g class="tick" opacity="1" transform="translate(0,227.5)"><line stroke="currentColor" x2="-6"/><text fill="currentColor" x="-9" dy="0.32em">40</text></g><g class="tick" opacity="1" transform="translate(0,170.625)"><line stroke="currentColor" x2="-6"/><text fill="currentColor" x="-9" dy="0.32em">50</text></g><g class="tick" opacity="1" transform="translate(0,113.75)"><line stroke="currentColor" x2="-6"/><text fill="currentColor" x="-9" dy="0.32em">60</text></g><g class="tick" opacity="1" transform="translate(0,56.875)"><line stroke="currentColor" x2="-6"/><text fill="currentColor" x="-9" dy="0.32em">70</text></g><g class="tick" opacity="1" transform="translate(0,0)"><line stroke="currentColor" x2="-6"/><text fill="currentColor" x="-9" dy="0.32em">80</text></g><text x="4" text-anchor="start" dominant-baseline="hanging" display="none" style="font-family: Arial, sans-serif; font-size: 12px; fill: rgb(123, 123, 123); font-weight: bold;">cases</text></g></g><g id="viz"><g id="skin"><path d="M0,272.43125C340.5,272.43125,340.5,245.70000000000002,681,245.70000000000002" stroke="#8c564b" fill="none"/><text font-family="sans-serif" font-size="10" class="labels" x="681" y="245.70000000000002" dx="0" dy="-4" text-anchor="middle">skin</text></g><g id="thyroid"><path d="M0,441.91875C340.5,441.91875,340.5,421.44375,681,421.44375" stroke="#e377c2" fill="none"/><text font-family="sans-serif" font-size="10" class="labels" x="681" y="421.44375" dx="0" dy="-4" text-anchor="middle">thyroid</text></g><g id="lungs"><path d="M0,177.44999999999996C340.5,177.44999999999996,340.5,47.77499999999994,681,47.77499999999994" stroke="#2ca02c" fill="none"/><text font-family="sans-serif" font-size="10" class="labels" x="681" y="47.77499999999994" dx="0" dy="-4" text-anchor="middle">lungs</text></g><g id="pancreas"><path d="M0,411.20625C340.5,411.20625,340.5,389.59375,681,389.59375" stroke="#d62728" fill="none"/><text font-family="sans-serif" font-size="10" class="labels" x="681" y="389.59375" dx="0" dy="-4" text-anchor="middle">pancreas</text></g><g id="colon"><path d="M0,393.00625C340.5,393.00625,340.5,360.01875,681,360.01875" stroke="#1f77b4" fill="none"/><text font-family="sans-serif" font-size="10" class="labels" x="681" y="360.01875" dx="0" dy="-4" text-anchor="middle">colon</text></g><g id="rectum"><path d="M0,372.53125C340.5,372.53125,340.5,342.3875,681,342.3875" stroke="#9467bd" fill="none"/><text font-family="sans-serif" font-size="10" class="labels" x="681" y="342.3875" dx="0" dy="-4" text-anchor="middle">rectum</text></g><g id="kidney"><path d="M0,425.425C340.5,425.425,340.5,391.3,681,391.3" stroke="#ff7f0e" fill="none"/><text font-family="sans-serif" font-size="10" class="labels" x="681" y="391.3" dx="0" dy="-4" text-anchor="middle">kidney</text></g></g></g><text y="4" x="4" style="font-family: Arial, sans-serif; font-size: 12px; fill: black; font-weight: bold; dominant-baseline: hanging;">Belarus</text></g><g id="Gomel" transform="translate(0,500)"><g transform="translate(50,25)" clip-path="url(#serieClipPath)"><g id="axis"><g transform="translate(0,455)" fill="none" font-size="10" font-family="sans-serif" text-anchor="middle"><path class="domain" stroke="currentColor" d="M0,6V0H681V6"/><g class="tick" opacity="1" transform="translate(0,0)"><line stroke="currentColor" y2="6"/><text fill="currentColor" y="9" dy="0.71em">1985</text></g><g class="tick" opacity="1" transform="translate(57.83835616438356,0)"><line stroke="currentColor" y2="6"/><text fill="currentColor" y="9" dy="0.71em">February</text></g><g class="tick" opacity="1" transform="translate(110.07945205479452,0)"><line stroke="currentColor" y2="6"/><text fill="currentColor" y="9" dy="0.71em">March</text></g><g class="tick" opacity="1" transform="translate(167.91780821917808,0)"><line stroke="currentColor" y2="6"/><text fill="currentColor" y="9" dy="0.71em">April</text></g><g class="tick" opacity="1" transform="translate(223.8126712328767,0)"><line stroke="currentColor" y2="6"/><text fill="currentColor" y="9" dy="0.71em">May</text></g><g class="tick" opacity="1" transform="translate(281.6510273972603,0)"><line stroke="currentColor" y2="6"/><text fill="currentColor" y="9" dy="0.71em">June</text></g><g class="tick" opacity="1" transform="translate(337.6236301369863,0)"><line stroke="currentColor" y2="6"/><text fill="currentColor" y="9" dy="0.71em">July</text></g><g class="tick" opacity="1" transform="translate(395.4619863013699,0)"><line stroke="currentColor" y2="6"/><text fill="currentColor" y="9" dy="0.71em">August</text></g><g class="tick" opacity="1" transform="translate(453.30034246575343,0)"><line stroke="currentColor" y2="6"/><text fill="currentColor" y="9" dy="0.71em">September</text></g><g class="tick" opacity="1" transform="translate(509.27294520547946,0)"><line stroke="currentColor" y2="6"/><text fill="currentColor" y="9" dy="0.71em">October</text></g><g class="tick" opacity="1" transform="translate(567.1890410958904,0)"><line stroke="currentColor" y2="6"/><text fill="currentColor" y="9" dy="0.71em">November</text></g><g class="tick" opacity="1" transform="translate(623.1616438356165,0)"><line stroke="currentColor" y2="6"/><text fill="currentColor" y="9" dy="0.71em">December</text></g><g class="tick" opacity="1" transform="translate(681,0)"><line stroke="currentColor" y2="6"/><text fill="currentColor" y="9" dy="0.71em">1986</text></g><text x="681" dy="-5" text-anchor="end" display="none" style="font-family: Arial, sans-serif; font-size: 12px; fill: rgb(123, 123, 123); font-weight: bold;">year</text></g><g transform="translate(0,0)" fill="none" font-size="10" font-family="sans-serif" text-anchor="end"><path class="domain" stroke="currentColor" d="M0,455V0"/><g class="tick" opacity="1" transform="translate(0,455)"><line stroke="currentColor" x2="-6"/><text fill="currentColor" x="-9" dy="0.32em">0</text></g><g class="tick" opacity="1" transform="translate(0,398.125)"><line stroke="currentColor" x2="-6"/><text fill="currentColor" x="-9" dy="0.32em">10</text></g><g class="tick" opacity="1" transform="translate(0,341.25)"><line stroke="currentColor" x2="-6"/><text fill="currentColor" x="-9" dy="0.32em">20</text></g><g class="tick" opacity="1" transform="translate(0,284.375)"><line stroke="currentColor" x2="-6"/><text fill="currentColor" x="-9" dy="0.32em">30</text></g><g class="tick" opacity="1" transform="translate(0,227.5)"><line stroke="currentColor" x2="-6"/><text fill="currentColor" x="-9" dy="0.32em">40</text></g><g class="tick" opacity="1" transform="translate(0,170.625)"><line stroke="currentColor" x2="-6"/><text fill="currentColor" x="-9" dy="0.32em">50</text></g><g class="tick" opacity="1" transform="translate(0,113.75)"><line stroke="currentColor" x2="-6"/><text fill="currentColor" x="-9" dy="0.32em">60</text></g><g class="tick" opacity="1" transform="translate(0,56.875)"><line stroke="currentColor" x2="-6"/><text fill="currentColor" x="-9" dy="0.32em">70</text></g><g class="tick" opacity="1" transform="translate(0,0)"><line stroke="currentColor" x2="-6"/><text fill="currentColor" x="-9" dy="0.32em">80</text></g><text x="4" text-anchor="start" dominant-baseline="hanging" display="none" style="font-family: Arial, sans-serif; font-size: 12px; fill: rgb(123, 123, 123); font-weight: bold;">cases</text></g></g><g id="viz"><g id="skin"><path d="M0,243.42499999999995C340.5,243.42499999999995,340.5,251.95624999999998,681,251.95624999999998" stroke="#8c564b" fill="none"/><text font-family="sans-serif" font-size="10" class="labels" x="0" y="243.42499999999995" dx="0" dy="-4" text-anchor="middle">skin</text></g><g id="thyroid"><path d="M0,441.91875C340.5,441.91875,340.5,402.10625,681,402.10625" stroke="#e377c2" fill="none"/><text font-family="sans-serif" font-size="10" class="labels" x="681" y="402.10625" dx="0" dy="-4" text-anchor="middle">thyroid</text></g><g id="lungs"><path d="M0,219.53750000000002C340.5,219.53750000000002,340.5,90.43125000000005,681,90.43125000000005" stroke="#2ca02c" fill="none"/><text font-family="sans-serif" font-size="10" class="labels" x="681" y="90.43125000000005" dx="0" dy="-4" text-anchor="middle">lungs</text></g><g id="pancreas"><path d="M0,404.95C340.5,404.95,340.5,383.33750000000003,681,383.33750000000003" stroke="#d62728" fill="none"/><text font-family="sans-serif" font-size="10" class="labels" x="681" y="383.33750000000003" dx="0" dy="-4" text-anchor="middle">pancreas</text></g><g id="colon"><path d="M0,402.10625C340.5,402.10625,340.5,373.66875,681,373.66875" stroke="#1f77b4" fill="none"/><text font-family="sans-serif" font-size="10" class="labels" x="681" y="373.66875" dx="0" dy="-4" text-anchor="middle">colon</text></g><g id="rectum"><path d="M0,380.49375C340.5,380.49375,340.5,352.625,681,352.625" stroke="#9467bd" fill="none"/><text font-family="sans-serif" font-size="10" class="labels" x="681" y="352.625" dx="0" dy="-4" text-anchor="middle">rectum</text></g><g id="kidney"><path d="M0,430.54375C340.5,430.54375,340.5,402.10625,681,402.10625" stroke="#ff7f0e" fill="none"/><text font-family="sans-serif" font-size="10" class="labels" x="681" y="402.10625" dx="0" dy="-4" text-anchor="middle">kidney</text></g></g></g><text y="4" x="4" style="font-family: Arial, sans-serif; font-size: 12px; fill: black; font-weight: bold; dominant-baseline: hanging;">Gomel</text></g><g id="grid"><rect x="0" y="0" width="750" height="500" fill="none" stroke="#ccc"/><rect x="750" y="0" width="750" height="500" fill="none" stroke="#ccc"/><rect x="0" y="500" width="750" height="500" fill="none" stroke="#ccc"/></g></g></svg>